<svg width="128" height="24" viewBox="0 0 128 24" fill="none" xmlns="http://www.w3.org/2000/svg">
<g clip-path="url(#clip0_246_291)">
<path d="M11.4311 0.911458C11.4837 0.80522 11.5649 0.715794 11.6657 0.653271C11.7664 0.590748 11.8825 0.557617 12.0011 0.557617C12.1196 0.557617 12.2358 0.590748 12.3365 0.653271C12.4372 0.715794 12.5184 0.80522 12.571 0.911458L15.3428 6.52575C15.5254 6.89528 15.7949 7.21498 16.1283 7.45741C16.4616 7.69984 16.8488 7.85777 17.2566 7.91763L23.4552 8.82474C23.5727 8.84176 23.683 8.8913 23.7738 8.96777C23.8646 9.04424 23.9321 9.14457 23.9688 9.25743C24.0055 9.37029 24.0099 9.49117 23.9815 9.6064C23.9531 9.72162 23.893 9.8266 23.808 9.90945L19.3252 14.2747C19.0296 14.5627 18.8084 14.9184 18.6807 15.3109C18.553 15.7035 18.5226 16.1212 18.5921 16.5281L19.6504 22.6955C19.6711 22.8129 19.6584 22.9337 19.6138 23.0443C19.5691 23.1548 19.4943 23.2506 19.3979 23.3206C19.3014 23.3907 19.1872 23.4322 19.0683 23.4405C18.9494 23.4488 18.8305 23.4235 18.7253 23.3674L13.1842 20.4541C12.8191 20.2624 12.4129 20.1622 12.0005 20.1622C11.5881 20.1622 11.1819 20.2624 10.8168 20.4541L5.27688 23.3674C5.17169 23.4231 5.05298 23.4482 4.93426 23.4397C4.81553 23.4313 4.70156 23.3897 4.6053 23.3197C4.50904 23.2497 4.43436 23.1541 4.38975 23.0437C4.34514 22.9334 4.3324 22.8127 4.35297 22.6955L5.41007 16.5292C5.4799 16.1222 5.44965 15.7042 5.32193 15.3114C5.1942 14.9186 4.97284 14.5628 4.67694 14.2747L0.194142 9.91065C0.108462 9.82789 0.0477472 9.72274 0.0189129 9.60716C-0.00992147 9.49159 -0.00571553 9.37024 0.0310514 9.25693C0.0678183 9.14363 0.135668 9.04293 0.226871 8.96631C0.318075 8.88969 0.428965 8.84022 0.54691 8.82354L6.74435 7.91763C7.15262 7.85823 7.54035 7.70051 7.87415 7.45805C8.20795 7.21559 8.47784 6.89564 8.66058 6.52575L11.4311 0.911458Z" fill="#181A1F"/>
<path d="M37.4311 0.911458C37.4837 0.80522 37.5649 0.715794 37.6656 0.653271C37.7664 0.590748 37.8825 0.557617 38.0011 0.557617C38.1196 0.557617 38.2358 0.590748 38.3365 0.653271C38.4372 0.715794 38.5184 0.80522 38.571 0.911458L41.3428 6.52575C41.5254 6.89528 41.7949 7.21498 42.1283 7.45741C42.4616 7.69984 42.8488 7.85777 43.2566 7.91763L49.4552 8.82475C49.5727 8.84176 49.683 8.89131 49.7738 8.96777C49.8646 9.04424 49.9321 9.14457 49.9688 9.25743C50.0055 9.37029 50.0099 9.49117 49.9815 9.6064C49.9531 9.72162 49.893 9.8266 49.808 9.90945L45.3252 14.2747C45.0296 14.5628 44.8084 14.9184 44.6807 15.3109C44.553 15.7035 44.5226 16.1212 44.5921 16.5281L45.6504 22.6955C45.6711 22.8129 45.6584 22.9338 45.6138 23.0443C45.5691 23.1548 45.4943 23.2506 45.3979 23.3206C45.3014 23.3907 45.1872 23.4322 45.0683 23.4405C44.9494 23.4488 44.8305 23.4235 44.7253 23.3674L39.1842 20.4541C38.8191 20.2624 38.4129 20.1622 38.0005 20.1622C37.5881 20.1622 37.1819 20.2624 36.8168 20.4541L31.2769 23.3674C31.1717 23.4231 31.053 23.4482 30.9343 23.4397C30.8155 23.4313 30.7016 23.3897 30.6053 23.3197C30.509 23.2497 30.4344 23.1541 30.3898 23.0437C30.3451 22.9334 30.3324 22.8127 30.353 22.6955L31.4101 16.5293C31.4799 16.1222 31.4496 15.7042 31.3219 15.3114C31.1942 14.9186 30.9728 14.5628 30.6769 14.2747L26.1941 9.91065C26.1085 9.82789 26.0477 9.72274 26.0189 9.60716C25.9901 9.49159 25.9943 9.37024 26.0311 9.25694C26.0678 9.14363 26.1357 9.04294 26.2269 8.96631C26.3181 8.88969 26.429 8.84022 26.5469 8.82355L32.7444 7.91763C33.1526 7.85823 33.5403 7.70052 33.8741 7.45805C34.208 7.21559 34.4778 6.89564 34.6606 6.52575L37.4311 0.911458Z" fill="#181A1F"/>
<path d="M63.4311 0.911458C63.4837 0.80522 63.5649 0.715794 63.6656 0.653271C63.7664 0.590748 63.8825 0.557617 64.0011 0.557617C64.1196 0.557617 64.2358 0.590748 64.3365 0.653271C64.4372 0.715794 64.5184 0.80522 64.571 0.911458L67.3428 6.52575C67.5254 6.89528 67.7949 7.21498 68.1283 7.45741C68.4616 7.69984 68.8488 7.85777 69.2566 7.91763L75.4552 8.82475C75.5727 8.84176 75.683 8.89131 75.7738 8.96777C75.8646 9.04424 75.9321 9.14457 75.9688 9.25743C76.0055 9.37029 76.0099 9.49117 75.9815 9.6064C75.9531 9.72162 75.893 9.8266 75.808 9.90945L71.3252 14.2747C71.0296 14.5628 70.8084 14.9184 70.6807 15.3109C70.553 15.7035 70.5226 16.1212 70.5921 16.5281L71.6504 22.6955C71.6711 22.8129 71.6584 22.9338 71.6138 23.0443C71.5691 23.1548 71.4943 23.2506 71.3979 23.3206C71.3014 23.3907 71.1872 23.4322 71.0683 23.4405C70.9494 23.4488 70.8305 23.4235 70.7253 23.3674L65.1842 20.4541C64.8191 20.2624 64.4129 20.1622 64.0005 20.1622C63.5881 20.1622 63.1819 20.2624 62.8168 20.4541L57.2769 23.3674C57.1717 23.4231 57.053 23.4482 56.9343 23.4397C56.8155 23.4313 56.7016 23.3897 56.6053 23.3197C56.509 23.2497 56.4344 23.1541 56.3898 23.0437C56.3451 22.9334 56.3324 22.8127 56.353 22.6955L57.4101 16.5293C57.4799 16.1222 57.4496 15.7042 57.3219 15.3114C57.1942 14.9186 56.9728 14.5628 56.6769 14.2747L52.1941 9.91065C52.1085 9.82789 52.0477 9.72274 52.0189 9.60716C51.9901 9.49159 51.9943 9.37024 52.0311 9.25694C52.0678 9.14363 52.1357 9.04294 52.2269 8.96631C52.3181 8.88969 52.429 8.84022 52.5469 8.82355L58.7444 7.91763C59.1526 7.85823 59.5403 7.70052 59.8741 7.45805C60.208 7.21559 60.4778 6.89564 60.6606 6.52575L63.4311 0.911458Z" fill="#181A1F"/>
<path d="M89.4311 0.911458C89.4837 0.80522 89.5649 0.715794 89.6656 0.653271C89.7664 0.590748 89.8825 0.557617 90.0011 0.557617C90.1196 0.557617 90.2358 0.590748 90.3365 0.653271C90.4372 0.715794 90.5184 0.80522 90.571 0.911458L93.3428 6.52575C93.5254 6.89528 93.7949 7.21498 94.1283 7.45741C94.4616 7.69984 94.8488 7.85777 95.2566 7.91763L101.455 8.82475C101.573 8.84176 101.683 8.89131 101.774 8.96777C101.865 9.04424 101.932 9.14457 101.969 9.25743C102.006 9.37029 102.01 9.49117 101.981 9.6064C101.953 9.72162 101.893 9.8266 101.808 9.90945L97.3252 14.2747C97.0296 14.5628 96.8084 14.9184 96.6807 15.3109C96.553 15.7035 96.5226 16.1212 96.5921 16.5281L97.6504 22.6955C97.6711 22.8129 97.6584 22.9338 97.6138 23.0443C97.5691 23.1548 97.4943 23.2506 97.3979 23.3206C97.3014 23.3907 97.1872 23.4322 97.0683 23.4405C96.9494 23.4488 96.8305 23.4235 96.7253 23.3674L91.1842 20.4541C90.8191 20.2624 90.4129 20.1622 90.0005 20.1622C89.5881 20.1622 89.1819 20.2624 88.8168 20.4541L83.2769 23.3674C83.1717 23.4231 83.053 23.4482 82.9343 23.4397C82.8155 23.4313 82.7016 23.3897 82.6053 23.3197C82.509 23.2497 82.4344 23.1541 82.3898 23.0437C82.3451 22.9334 82.3324 22.8127 82.353 22.6955L83.4101 16.5293C83.4799 16.1222 83.4496 15.7042 83.3219 15.3114C83.1942 14.9186 82.9728 14.5628 82.6769 14.2747L78.1941 9.91065C78.1085 9.82789 78.0477 9.72274 78.0189 9.60716C77.9901 9.49159 77.9943 9.37024 78.0311 9.25694C78.0678 9.14363 78.1357 9.04294 78.2269 8.96631C78.3181 8.88969 78.429 8.84022 78.5469 8.82355L84.7444 7.91763C85.1526 7.85823 85.5403 7.70052 85.8741 7.45805C86.208 7.21559 86.4778 6.89564 86.6606 6.52575L89.4311 0.911458Z" fill="#181A1F"/>
<path fill-rule="evenodd" clip-rule="evenodd" d="M115.951 0.55957H116.051C116.034 0.558272 116.018 0.557617 116.001 0.557617C115.984 0.557617 115.968 0.558272 115.951 0.55957ZM127.999 9.42257V9.48567C128 9.46464 128 9.44358 127.999 9.42257ZM123.08 23.4396H122.968C123.001 23.4425 123.035 23.4428 123.068 23.4405C123.072 23.4402 123.076 23.4399 123.08 23.4396ZM111.199 22.3565V7.80801C111.052 7.85826 110.9 7.89505 110.744 7.91763L104.547 8.82354C104.429 8.84022 104.318 8.88969 104.227 8.96631C104.136 9.04293 104.068 9.14363 104.031 9.25693C103.994 9.37024 103.99 9.49159 104.019 9.60716C104.048 9.72274 104.108 9.82789 104.194 9.91065L108.677 14.2747C108.973 14.5628 109.194 14.9186 109.322 15.3114C109.45 15.7042 109.48 16.1222 109.41 16.5293L108.353 22.6955C108.332 22.8127 108.345 22.9334 108.39 23.0437C108.434 23.1541 108.509 23.2497 108.605 23.3197C108.702 23.3897 108.816 23.4313 108.934 23.4397C109.053 23.4482 109.172 23.4231 109.277 23.3674L111.199 22.3565Z" fill="#181A1F"/>
</g>
<defs>
<clipPath id="clip0_246_291">
<rect width="128" height="24" fill="white"/>
</clipPath>
</defs>
</svg>
