<svg width="76" height="24" viewBox="0 0 76 24" fill="none" xmlns="http://www.w3.org/2000/svg">
<g clip-path="url(#clip0_246_55)">
<path d="M11.4311 0.911458C11.4837 0.80522 11.5649 0.715794 11.6657 0.653271C11.7664 0.590748 11.8825 0.557617 12.0011 0.557617C12.1196 0.557617 12.2358 0.590748 12.3365 0.653271C12.4372 0.715794 12.5184 0.80522 12.571 0.911458L15.3428 6.52575C15.5254 6.89528 15.7949 7.21498 16.1283 7.45741C16.4616 7.69984 16.8488 7.85777 17.2566 7.91763L23.4552 8.82474C23.5727 8.84176 23.683 8.8913 23.7738 8.96777C23.8646 9.04424 23.9321 9.14457 23.9688 9.25743C24.0055 9.37029 24.0099 9.49117 23.9815 9.6064C23.9531 9.72162 23.893 9.8266 23.808 9.90945L19.3252 14.2747C19.0296 14.5627 18.8084 14.9184 18.6807 15.3109C18.553 15.7035 18.5226 16.1212 18.5921 16.5281L19.6504 22.6955C19.6711 22.8129 19.6584 22.9337 19.6138 23.0443C19.5691 23.1548 19.4943 23.2506 19.3979 23.3206C19.3014 23.3907 19.1872 23.4322 19.0683 23.4405C18.9494 23.4488 18.8305 23.4235 18.7253 23.3674L13.1842 20.4541C12.8191 20.2624 12.4129 20.1622 12.0005 20.1622C11.5881 20.1622 11.1819 20.2624 10.8168 20.4541L5.27688 23.3674C5.17169 23.4231 5.05298 23.4482 4.93426 23.4397C4.81553 23.4313 4.70156 23.3897 4.6053 23.3197C4.50904 23.2497 4.43436 23.1541 4.38975 23.0437C4.34514 22.9334 4.3324 22.8127 4.35297 22.6955L5.41007 16.5292C5.4799 16.1222 5.44965 15.7042 5.32193 15.3114C5.1942 14.9186 4.97284 14.5628 4.67694 14.2747L0.194142 9.91065C0.108462 9.82789 0.0477472 9.72274 0.0189129 9.60716C-0.00992147 9.49159 -0.00571553 9.37024 0.0310514 9.25693C0.0678183 9.14363 0.135668 9.04293 0.226871 8.96631C0.318075 8.88969 0.428965 8.84022 0.54691 8.82354L6.74435 7.91763C7.15262 7.85823 7.54035 7.70051 7.87415 7.45805C8.20795 7.21559 8.47784 6.89564 8.66058 6.52575L11.4311 0.911458Z" fill="#181A1F"/>
<path d="M37.4311 0.911458C37.4837 0.80522 37.5649 0.715794 37.6657 0.653271C37.7664 0.590748 37.8825 0.557617 38.0011 0.557617C38.1196 0.557617 38.2358 0.590748 38.3365 0.653271C38.4372 0.715794 38.5184 0.80522 38.571 0.911458L41.3428 6.52575C41.5254 6.89528 41.7949 7.21498 42.1283 7.45741C42.4616 7.69984 42.8488 7.85777 43.2566 7.91763L49.4552 8.82474C49.5727 8.84176 49.683 8.8913 49.7738 8.96777C49.8646 9.04424 49.9321 9.14457 49.9688 9.25743C50.0055 9.37029 50.0099 9.49117 49.9815 9.6064C49.9531 9.72162 49.893 9.8266 49.808 9.90945L45.3252 14.2747C45.0296 14.5627 44.8084 14.9184 44.6807 15.3109C44.553 15.7035 44.5226 16.1212 44.5921 16.5281L45.6504 22.6955C45.6711 22.8129 45.6584 22.9337 45.6138 23.0443C45.5691 23.1548 45.4943 23.2506 45.3979 23.3206C45.3014 23.3907 45.1872 23.4322 45.0683 23.4405C44.9494 23.4488 44.8305 23.4235 44.7253 23.3674L39.1842 20.4541C38.8191 20.2624 38.4129 20.1622 38.0005 20.1622C37.5881 20.1622 37.1819 20.2624 36.8168 20.4541L31.2769 23.3674C31.1717 23.4231 31.053 23.4482 30.9343 23.4397C30.8155 23.4313 30.7016 23.3897 30.6053 23.3197C30.509 23.2497 30.4344 23.1541 30.3898 23.0437C30.3451 22.9334 30.3324 22.8127 30.353 22.6955L31.4101 16.5292C31.4799 16.1222 31.4496 15.7042 31.3219 15.3114C31.1942 14.9186 30.9728 14.5628 30.6769 14.2747L26.1941 9.91065C26.1085 9.82789 26.0477 9.72274 26.0189 9.60716C25.9901 9.49159 25.9943 9.37024 26.0311 9.25693C26.0678 9.14363 26.1357 9.04293 26.2269 8.96631C26.3181 8.88969 26.429 8.84022 26.5469 8.82354L32.7444 7.91763C33.1526 7.85823 33.5403 7.70051 33.8742 7.45805C34.208 7.21559 34.4778 6.89564 34.6606 6.52575L37.4311 0.911458Z" fill="#181A1F"/>
<path fill-rule="evenodd" clip-rule="evenodd" d="M63.6657 0.653271C63.5649 0.715794 63.4837 0.80522 63.4311 0.911458L60.6606 6.52575C60.4778 6.89564 60.208 7.21559 59.8742 7.45805C59.5403 7.70051 59.1526 7.85823 58.7444 7.91763L52.5469 8.82354C52.429 8.84022 52.3181 8.88969 52.2269 8.96631C52.1357 9.04293 52.0678 9.14363 52.0311 9.25693C51.9943 9.37024 51.9901 9.49159 52.0189 9.60716C52.0477 9.72274 52.1085 9.82789 52.1941 9.91065L56.6769 14.2747C56.9728 14.5628 57.1942 14.9186 57.3219 15.3114C57.4496 15.7042 57.4799 16.1222 57.4101 16.5293L56.353 22.6955C56.3324 22.8127 56.3451 22.9334 56.3898 23.0437C56.4344 23.1541 56.509 23.2497 56.6053 23.3197C56.7016 23.3897 56.8155 23.4313 56.9343 23.4397C57.053 23.4482 57.1717 23.4231 57.2769 23.3674L62.8168 20.4541C63.1819 20.2624 63.5881 20.1622 64.0005 20.1622C64.4129 20.1622 64.8191 20.2624 65.1842 20.4541L70.7253 23.3674C70.8305 23.4235 70.9494 23.4488 71.0683 23.4405C71.1128 23.4374 71.1567 23.4296 71.1992 23.4175V20.0662L70.5921 16.5281C70.5226 16.1212 70.553 15.7035 70.6807 15.3109C70.7895 14.9763 70.9663 14.6685 71.1992 14.4066V8.20191L69.2566 7.91763C68.8488 7.85777 68.4616 7.69984 68.1283 7.45741C67.7949 7.21498 67.5254 6.89528 67.3428 6.52575L64.571 0.911458C64.5184 0.80522 64.4372 0.715794 64.3365 0.653271C64.2358 0.590748 64.1196 0.557617 64.0011 0.557617C63.8825 0.557617 63.7664 0.590748 63.6657 0.653271ZM75.9992 9.42257V9.48567C76.0003 9.46464 76.0003 9.44358 75.9992 9.42257Z" fill="#181A1F"/>
</g>
<defs>
<clipPath id="clip0_246_55">
<rect width="76" height="24" fill="white"/>
</clipPath>
</defs>
</svg>
