<svg width="121" height="120" viewBox="0 0 121 120" fill="none" xmlns="http://www.w3.org/2000/svg">
<path fill-rule="evenodd" clip-rule="evenodd" d="M54.0293 59.7719C54.0293 63.7909 50.7715 67.0487 46.7525 67.0487H43.7383V19.7041C47.8791 19.7041 51.624 21.6527 54.0293 24.6669V59.7719Z" fill="#181A1F"/>
<path fill-rule="evenodd" clip-rule="evenodd" d="M59.2679 86.9303H55.0968L47.3633 100.296H41.5175L49.3423 86.7477C46.115 85.9865 43.7097 83.1245 43.7097 79.6536C50.682 79.6536 56.3146 74.0209 56.3146 67.0487V19.7041C61.5514 19.7041 66.1184 22.8097 68.2497 27.2549L105.547 91.8322H94.9514L66.636 42.7827V47.3801L97.174 100.266H77.3533L73.791 94.1157H81.3722L66.636 68.571V73.1684L77.3837 91.8018H62.2822L57.4107 100.266H51.5649L59.2679 86.9303ZM66.636 55.6921V60.2895L86.1828 94.1157H88.8317L66.636 55.6921Z" fill="#181A1F"/>
<path fill-rule="evenodd" clip-rule="evenodd" d="M22.8234 37.8193C18.8044 37.8193 15.5466 41.0771 15.5466 45.0961C15.5466 47.3796 16.6123 49.4195 18.2564 50.7592C18.9262 48.8715 20.7226 47.5318 22.8234 47.5318H31.1353V67.0481C31.1353 74.0204 36.7679 79.653 43.7402 79.653V67.0481C42.157 67.0481 40.8478 65.7389 40.8478 64.1557V42.6604C40.8478 39.981 38.6861 37.8193 36.0068 37.8193H22.8234ZM31.1353 40.2246C31.1353 41.5643 30.0392 42.6604 28.6996 42.6604C27.3599 42.6604 26.2638 41.5643 26.2638 40.2246H31.1353Z" fill="#181A1F"/>
</svg>
