<svg width="121" height="120" viewBox="0 0 121 120" fill="none" xmlns="http://www.w3.org/2000/svg">
<path d="M42.8132 73.0099C41.9938 74.5995 41.3253 76.26 40.854 77.9296C40.7523 78.2315 40.6845 78.5673 40.6137 78.8692C40.5459 79.168 40.4843 79.4669 40.4288 79.7626C40.281 80.542 40.1701 81.3029 40.1269 82.0299C40.0715 82.9449 40.4288 104.29 40.4288 104.29H45.6689L51.5312 82.4489L51.8823 81.1366C48.2873 79.1496 45.1852 76.3585 42.8132 73.0068V73.0099Z" fill="#181A1F"/>
<path d="M35.6874 30.3551C35.8691 29.3447 35.7213 28.5406 35.2438 27.9707L35.2346 27.9615L35.2253 27.9522C34.5045 27.0712 33.0166 26.5567 31.0327 26.5013C30.9094 26.4982 30.7893 26.4951 30.6661 26.4951C29.5632 26.4951 28.4327 26.6307 27.4007 26.8894L25.7834 27.2961C23.7071 32.2189 12.2936 39.064 10.5531 39.5476C10.4669 42.2894 11.2555 45.5456 14.0588 48.3366C16.7789 51.0445 18.3469 52.0857 24.3848 52.6002C24.4588 52.366 24.5327 52.1319 24.6128 51.8947C26.2609 47.0859 29.1628 42.3418 31.4886 38.5372C33.8237 34.6957 35.3793 32.0494 35.6874 30.352V30.3551ZM28.3433 33.3834C27.1481 33.8424 25.808 33.2478 25.3737 32.0402L29.6741 30.3859C30.1331 31.5812 29.5386 32.9213 28.3433 33.3834Z" fill="#181A1F"/>
<path d="M43.1541 67.8254C45.8804 63.3308 50.5567 53.2264 50.5567 53.2264C50.5567 53.2264 51.4747 53.4883 53.0827 54.2923C58.1379 42.6599 53.4462 35.0693 53.4462 35.0693H56.6254C55.732 29.9124 48.1939 24.5244 48.1939 24.5244C48.1939 24.5244 49.1119 24.2071 50.3718 23.4616C48.4003 21.3853 45.1411 19.5924 41.2996 18.5819C39.6238 18.0983 37.9541 17.8179 36.3799 17.7717L38.0835 15.6738C36.0442 16.099 32.6864 16.9646 30.0771 19.2812C29.6982 19.5277 29.3378 19.7988 29.0205 20.1037C27.8653 21.2128 27.1259 22.6945 26.8148 24.5275C28.0255 24.2225 29.3563 24.0592 30.6717 24.0592C30.8165 24.0592 30.9612 24.0592 31.106 24.0654C33.8477 24.1424 35.9271 24.9526 37.1193 26.4097C37.7847 27.2076 38.487 28.6093 38.0927 30.7934C37.7077 32.9129 36.1304 35.6146 33.5797 39.8104C31.3093 43.5225 28.4876 48.1373 26.9257 52.6935C25.6165 56.5504 25.4532 59.6803 26.4297 62.2557C27.3878 64.8126 28.3181 67.2309 29.2639 69.4674C30.3636 72.0674 31.4819 74.4179 32.6894 76.4419C34.1773 78.9402 35.7946 80.9488 37.6707 82.3166C37.6769 82.1749 37.683 82.0301 37.6923 81.8822C37.7385 81.1059 37.8494 80.2587 38.0311 79.3037C38.0958 78.968 38.1605 78.6507 38.2314 78.3364L38.2622 78.2009C38.3269 77.9206 38.4039 77.5724 38.5179 77.2213C38.638 76.7961 38.7735 76.3679 38.9183 75.9428C38.9337 75.8966 38.9522 75.8535 38.9676 75.8073C40.0396 73.0532 41.6231 70.3515 43.1541 67.8316C43.1541 67.8316 43.1541 67.8316 43.1541 67.8285V67.8254Z" fill="#181A1F"/>
<path d="M77.2886 76.9064L73.0898 78.0524V104.327H78.3299L83.918 83.4311C83.2896 82.9968 82.6796 82.5347 82.0943 82.0479C80.286 80.5508 78.678 78.8164 77.2886 76.9033V76.9064Z" fill="#181A1F"/>
<path d="M110.358 64.7814C110.016 61.3927 109.396 57.9147 108.013 54.8618C107.594 53.9345 107.098 53.0535 106.522 52.2186C107.912 51.3222 108.83 49.7634 108.83 47.9828V22.9775C106.624 22.9775 104.853 25.2572 104.853 26.9546C104.853 28.652 105.41 29.2835 106.285 30.0106V47.9582C106.285 48.9563 105.703 49.8096 104.862 50.2132C102.012 47.3575 97.6934 45.4998 91.0671 45.4998C78.1688 45.4998 67.4238 45.3643 59.2604 37.8599H57.489C58.4717 41.6614 58.9492 47.7918 55.6407 55.404L54.467 58.1026L51.9379 56.8396C50.3606 60.1543 47.508 66.0167 45.5488 69.2544L45.5149 69.3129L45.5026 69.3345C45.1915 69.8459 44.8803 70.3665 44.5723 70.8902C47.1907 74.8334 50.9028 77.9879 55.2834 79.8917V104.293H60.5234L66.475 82.0512L67.9167 76.6633L78.4676 73.8507C80.4823 77.1808 83.2394 79.9318 86.4555 81.9434C90.1122 84.2292 94.3572 85.557 98.7716 85.6864L103.734 104.29H108.974C108.974 104.29 111.202 78.0649 110.355 64.7783L110.358 64.7814Z" fill="#181A1F"/>
</svg>
