<svg width="121" height="120" viewBox="0 0 121 120" fill="none" xmlns="http://www.w3.org/2000/svg">
<path fill-rule="evenodd" clip-rule="evenodd" d="M65.1471 14.9309C65.1636 14.9235 65.1762 14.9178 65.1791 14.9116L65.1774 14.9099C65.3544 14.522 65.3462 12.6458 65.2927 12.1394C65.2716 11.9398 65.0444 10.8994 64.9762 10.7517C64.8869 10.5569 64.413 10.3816 64.1923 10.3183C62.8678 9.93528 58.0701 9.86224 56.7944 10.2972C56.1149 10.5297 56.1043 10.6827 56.0803 11.0294C56.0719 11.1499 56.062 11.2937 56.0218 11.4723C55.8108 12.4104 55.6696 13.42 55.8043 14.4052C55.8418 14.6789 55.9173 14.8654 55.9929 15.0524C56.107 15.3343 56.2215 15.6173 56.2068 16.2019C56.1758 17.4738 56.1478 18.7472 56.1199 20.021C56.0528 23.0757 55.9857 26.133 55.8757 29.1798C55.8595 29.6362 55.8617 30.0736 55.8638 30.4943C55.8736 32.4275 55.8816 34.006 54.0887 35.427C54.0424 35.4637 53.9964 35.5002 53.9505 35.5365C50.7775 38.0506 48.5946 39.7801 48.2522 44.2791C48.2737 51.9322 48.262 59.5873 48.2503 67.2425C48.231 79.8226 48.2117 92.4026 48.3399 104.973C48.5898 106.312 48.8674 107.651 50.1009 108.404C52.3715 109.792 56.7538 109.917 59.4059 109.977C62.4864 110.047 68.4674 110.058 71.0172 108.434C72.2394 107.655 72.4682 106.828 72.7539 105.463C72.8999 84.9724 72.8853 64.4456 72.7604 43.9513C72.3773 41.1434 71.1633 38.8922 69.0663 37.0176C68.7232 36.7107 68.3191 36.4164 67.9054 36.1151C66.8355 35.3358 65.7016 34.5099 65.3949 33.3008C65.1807 32.4551 65.1988 31.3339 65.2155 30.2933C65.2232 29.812 65.2307 29.348 65.2148 28.9364C65.1883 28.2433 65.1576 27.5487 65.1269 26.8534C65.0561 25.2495 64.9852 23.6425 64.9648 22.0449C64.9633 21.9288 64.9603 21.7519 64.9565 21.529C64.9276 19.8252 64.8532 15.4347 65.0541 15.0041C65.0731 14.9641 65.1166 14.9445 65.1471 14.9309ZM56.2759 55.0497C56.2759 56.5191 57.405 57.4626 60.916 58.3752C64.4271 59.2878 68.1857 60.7881 68.1857 65.1808C68.1857 68.3516 65.7882 70.0994 62.7721 70.6717V73.9972H58.1319V70.6408C55.1622 70.0066 52.6256 68.1041 52.44 64.7168H55.8428C56.0129 66.542 57.2658 67.9649 60.452 67.9649C63.8703 67.9649 64.6282 66.2635 64.6282 65.1963C64.6282 63.7578 63.8548 62.3967 59.988 61.4687C55.6726 60.4324 52.7184 58.6536 52.7184 55.0807C52.7184 52.0955 55.1313 50.1466 58.1319 49.497V46.1561H62.7721V49.5434C66.0048 50.3322 67.6288 52.7761 67.7371 55.4364H64.3188C64.226 53.503 63.2052 52.1883 60.452 52.1883C57.838 52.1883 56.2759 53.3638 56.2759 55.0497Z" fill="#181A1F"/>
</svg>
