<svg width="100%" height="100%" viewBox="0 0 40 50" fill="none" xmlns="http://www.w3.org/2000/svg" class="size-10"><path d="M7.78083 0.171147C7.52836 0.273514 7.32295 0.465223 7.20436 0.709164C7.08576 0.953118 7.06244 1.23193 7.13889 1.49165L8.58531 6.86903C8.62094 7.00945 8.68438 7.1414 8.7718 7.2572C8.85924 7.37298 8.96903 7.47032 9.09481 7.54354C9.2205 7.61676 9.35962 7.6644 9.50417 7.68369C9.64871 7.70299 9.79568 7.69357 9.93652 7.65595C10.0775 7.61835 10.2095 7.55329 10.3249 7.46461C10.4404 7.37592 10.5371 7.26535 10.6092 7.13932C10.6813 7.01328 10.7275 6.87431 10.7451 6.73047C10.7627 6.58664 10.7514 6.44079 10.7118 6.30144L9.26534 0.924053C9.22808 0.771249 9.15806 0.628297 9.06008 0.504937C8.96208 0.381577 8.83839 0.280714 8.69745 0.209244C8.55652 0.137775 8.40169 0.0973665 8.24348 0.0907981C8.0853 0.0842297 7.92749 0.111627 7.78083 0.171147ZM0.877025 6.61054C0.675147 6.67612 0.496587 6.79828 0.362844 6.96228C0.229114 7.12627 0.145909 7.32511 0.123274 7.53481C0.10065 7.74454 0.139543 7.95618 0.235291 8.14423C0.331025 8.33233 0.479535 8.48873 0.662882 8.59469L5.24303 11.4561C5.36641 11.5323 5.50373 11.5836 5.64715 11.6071C5.79057 11.6306 5.93727 11.6256 6.0789 11.5928C6.22051 11.5598 6.35427 11.4997 6.47254 11.4154C6.59079 11.3312 6.69124 11.2248 6.76815 11.1022C6.84505 10.9794 6.89689 10.8429 6.92073 10.7005C6.94457 10.5579 6.93992 10.4122 6.90705 10.2716C6.87418 10.131 6.81375 9.99824 6.7292 9.88085C6.64463 9.76357 6.53761 9.66389 6.41423 9.58776L1.81747 6.73078C1.67976 6.64234 1.52385 6.58565 1.36113 6.56485C1.19841 6.54404 1.033 6.55966 0.877025 6.61054ZM17.1082 2.27816C16.8391 2.37077 16.6164 2.56327 16.4869 2.81523L13.94 7.57896C13.8015 7.83633 13.7714 8.13766 13.8564 8.41665C13.9416 8.69563 14.1347 8.92949 14.3936 9.06673C14.6525 9.20389 14.9557 9.23328 15.2368 9.14835C15.5178 9.06341 15.7536 8.87107 15.8921 8.61375L18.439 3.84996C18.5522 3.65537 18.6024 3.43098 18.5826 3.2073C18.5629 2.98361 18.4744 2.77148 18.329 2.59976C18.1836 2.42803 17.9885 2.30505 17.7701 2.2475C17.5515 2.18996 17.3204 2.20066 17.1082 2.27816ZM10.9603 10.3367C8.89568 10.8878 7.54908 12.9461 8.09438 14.9735L12.0698 29.753C11.3579 29.2856 10.5309 28.7179 9.88284 28.3743C9.21039 28.0181 8.53848 27.7378 7.80235 27.6567C7.06625 27.5758 6.27236 27.749 5.59166 28.1762C4.77528 28.6885 4.41582 29.5501 4.36411 30.4309C4.3124 31.3114 4.62319 32.3031 5.42732 32.9933C8.01984 35.2186 11.1135 38.6947 14.5477 41.414C17.9819 44.1336 21.9312 46.1969 26.144 45.0724L28.4532 44.456C34.301 42.8951 37.9029 37.1547 36.3337 31.3207L33.3166 20.1039C32.8058 18.2043 30.9853 16.8368 29.1008 17.3398C28.518 17.4954 28.0549 17.8429 27.6723 18.2515C26.8019 17.2616 25.5025 16.7091 24.1662 17.0658C23.4864 17.2473 22.9472 17.6621 22.5195 18.1594C21.5589 17.2113 20.1189 16.7672 18.7033 17.145C18.0852 17.3101 17.5808 17.6335 17.1241 18.0262L15.753 12.9292C15.2079 10.9018 13.025 9.78558 10.9603 10.3367ZM11.5283 12.4481C12.5263 12.1817 13.4075 12.682 13.6265 13.4969L17.1495 26.5939C17.1851 26.7344 17.2485 26.8663 17.3359 26.9821C17.4234 27.0978 17.5332 27.1952 17.6589 27.2684C17.7846 27.3416 17.9238 27.3892 18.0683 27.4085C18.2128 27.4279 18.3598 27.4184 18.5008 27.3807C18.6416 27.3432 18.7736 27.278 18.8892 27.1895C19.0045 27.1008 19.1012 26.9902 19.1733 26.8641C19.2454 26.7382 19.2917 26.5991 19.3092 26.4552C19.3269 26.3115 19.3155 26.1657 19.276 26.0263L17.9583 21.1272C17.9575 21.0982 17.9557 21.0692 17.9526 21.0403C17.8433 20.2913 18.3415 19.5044 19.2712 19.2564C20.2686 18.9901 21.148 19.4849 21.3694 20.3052L22.7482 25.3647C22.7838 25.5051 22.8473 25.637 22.9347 25.7528C23.0221 25.8686 23.1319 25.966 23.2577 26.0391C23.3834 26.1124 23.5226 26.16 23.6671 26.1794C23.8116 26.1986 23.9585 26.1891 24.0995 26.1516C24.2403 26.114 24.3725 26.0489 24.4878 25.9602C24.6034 25.8715 24.7 25.761 24.772 25.6349C24.8442 25.509 24.8905 25.3699 24.908 25.226C24.9257 25.0823 24.9144 24.9364 24.8747 24.7971L23.8021 20.8757C23.8006 20.8702 23.7992 20.8646 23.7977 20.8592C23.805 20.8056 23.8083 20.7514 23.8076 20.6974C23.7477 19.9318 24.1466 19.334 24.7341 19.1772C25.4066 18.9977 26.178 19.448 26.4215 20.3533L27.4509 24.1802C27.4865 24.3206 27.5499 24.4525 27.6373 24.5683C27.7249 24.6842 27.8345 24.7814 27.9603 24.8547C28.086 24.9278 28.2252 24.9756 28.3697 24.9949C28.5142 25.0141 28.6613 25.0046 28.8021 24.9671C28.9431 24.9295 29.0751 24.8644 29.1905 24.7757C29.306 24.6871 29.4026 24.5764 29.4747 24.4505C29.5469 24.3244 29.5931 24.1853 29.6108 24.0416C29.6283 23.8977 29.617 23.7519 29.5774 23.6125L28.8985 21.0888C28.9009 21.0418 28.9 20.9948 28.8962 20.948C28.8073 20.1399 29.1953 19.5776 29.6689 19.4511C30.2021 19.3088 30.9368 19.7292 31.1901 20.6716L34.2071 31.8882C35.4709 36.5865 32.6665 41.0685 27.8854 42.3446L25.5761 42.961C22.3537 43.8211 19.1378 42.2506 15.9217 39.7039C12.7054 37.1569 9.6571 33.729 6.86888 31.3358C6.62739 31.1284 6.53444 30.8492 6.55179 30.554C6.56912 30.2588 6.73664 30.0374 6.76425 30.02C7.05968 29.8346 7.26048 29.8063 7.57056 29.8402C7.88072 29.8743 8.31282 30.0236 8.85454 30.3106C9.93787 30.8847 11.3893 31.9539 13.2874 33.0877C13.4747 33.1991 13.6912 33.2527 13.9093 33.2413C14.1275 33.23 14.3376 33.1545 14.5126 33.0244C14.6876 32.8943 14.8198 32.7153 14.8922 32.5104C14.9647 32.3057 14.9743 32.0841 14.9195 31.8742L10.2208 14.4058C10.0017 13.5911 10.5303 12.7145 11.5283 12.4481Z"></path></svg>