<svg width="121" height="120" viewBox="0 0 121 120" fill="none" xmlns="http://www.w3.org/2000/svg">
<path fill-rule="evenodd" clip-rule="evenodd" d="M65.1471 14.9309C65.1636 14.9235 65.1762 14.9178 65.1791 14.9116L65.1774 14.9099C65.3544 14.522 65.3462 12.6458 65.2927 12.1394C65.2716 11.9398 65.0444 10.8994 64.9762 10.7517C64.8869 10.5569 64.413 10.3816 64.1923 10.3183C62.8678 9.93528 58.0701 9.86224 56.7944 10.2972C56.1149 10.5297 56.1043 10.6827 56.0803 11.0294C56.0719 11.1499 56.062 11.2937 56.0218 11.4723C55.8108 12.4104 55.6696 13.42 55.8043 14.4052C55.8418 14.6789 55.9173 14.8654 55.9929 15.0524C56.107 15.3343 56.2215 15.6173 56.2068 16.2019C56.1758 17.4738 56.1478 18.7472 56.1199 20.021C56.0528 23.0757 55.9857 26.133 55.8757 29.1798C55.8595 29.6362 55.8617 30.0736 55.8638 30.4943C55.8736 32.4275 55.8816 34.006 54.0887 35.427C54.0424 35.4637 53.9964 35.5002 53.9505 35.5365C50.7775 38.0506 48.5946 39.7801 48.2522 44.2791C48.2737 51.9322 48.262 59.5873 48.2503 67.2425C48.231 79.8226 48.2117 92.4026 48.3399 104.973C48.5898 106.312 48.8674 107.651 50.1009 108.404C52.3715 109.792 56.7538 109.917 59.4059 109.977C62.4864 110.047 68.4674 110.058 71.0172 108.434C72.2394 107.655 72.4682 106.828 72.7539 105.463C72.8999 84.9724 72.8853 64.4456 72.7604 43.9513C72.3773 41.1434 71.1633 38.8922 69.0663 37.0176C68.7232 36.7107 68.3191 36.4164 67.9054 36.1151C66.8355 35.3358 65.7016 34.5099 65.3949 33.3008C65.1807 32.4551 65.1988 31.3339 65.2155 30.2933C65.2232 29.812 65.2307 29.348 65.2148 28.9364C65.1883 28.2433 65.1576 27.5487 65.1269 26.8534C65.0561 25.2495 64.9852 23.6425 64.9648 22.0449C64.9633 21.9288 64.9603 21.7519 64.9565 21.529C64.9276 19.8252 64.8532 15.4347 65.0541 15.0041C65.0731 14.9641 65.1166 14.9445 65.1471 14.9309ZM61.4979 52.6771C61.1986 51.7557 59.8952 51.7557 59.5958 52.677L58.4701 56.1416C58.3362 56.5536 57.9523 56.8326 57.5191 56.8326H53.8762C52.9075 56.8326 52.5047 58.0722 53.2884 58.6416L56.2356 60.7828C56.586 61.0374 56.7327 61.4888 56.5988 61.9008L55.4731 65.3654C55.1738 66.2867 56.2283 67.0528 57.012 66.4834L59.9591 64.3422C60.3096 64.0876 60.7842 64.0876 61.1347 64.3422L64.0818 66.4834C64.8655 67.0528 65.92 66.2867 65.6206 65.3654L64.4949 61.9008C64.361 61.4888 64.5077 61.0374 64.8582 60.7828L67.8053 58.6416C68.589 58.0722 68.1862 56.8326 67.2175 56.8326H63.5747C63.1415 56.8326 62.7575 56.5536 62.6236 56.1416L61.4979 52.6771Z" fill="#181A1F"/>
</svg>
