<svg width="121" height="120" viewBox="0 0 121 120" fill="none" xmlns="http://www.w3.org/2000/svg">
<path d="M48.1651 51.3905V37.1429C48.1651 31.8857 52.4318 27.619 57.6889 27.619C62.946 27.619 67.2127 31.8857 67.2127 37.1429V51.3905C71.8222 48.3048 74.8318 43.0857 74.8318 37.1429C74.8318 27.6571 67.1746 20 57.6889 20C48.2032 20 40.546 27.6571 40.546 37.1429C40.546 43.0857 43.5556 48.3048 48.1651 51.3905ZM85.6508 69.0286L68.3556 60.419C67.7079 60.1524 67.0222 60 66.2984 60H63.4032V37.1429C63.4032 33.981 60.8508 31.4286 57.6889 31.4286C54.527 31.4286 51.9746 33.981 51.9746 37.1429V78.0571C38.2603 75.1619 38.4889 75.2 37.9937 75.2C36.8127 75.2 35.746 75.6952 34.9841 76.4571L31.9746 79.5048L50.7937 98.3238C51.8222 99.3524 53.2698 100 54.8318 100H80.6984C83.5556 100 85.7651 97.9048 86.1841 95.1238L89.0413 75.0476C89.0794 74.781 89.1175 74.5143 89.1175 74.2857C89.1175 71.9238 87.6698 69.8667 85.6508 69.0286Z" fill="#181A1F"/>
</svg>
