<svg viewBox="0 0 121 120" xmlns="http://www.w3.org/2000/svg"><path d="m36.4 9.8c-.6.2-1 .6-1.3 1.2-.3.5-.3 1.2-.1 1.7l3.2 11.9c0 .3.2.6.4.9s.4.5.7.6c.3.2.6.3.9.3h1c.3 0 .6-.2.9-.4s.5-.4.6-.7c.2-.3.3-.6.3-.9s0-.6 0-.9l-3.2-11.9c0-.3-.2-.7-.5-.9-.2-.3-.5-.5-.8-.7s-.7-.2-1-.3c-.3 0-.7 0-1 .2zm-15.2 14.2c-.4.1-.8.4-1.1.8s-.5.8-.5 1.3 0 .9.2 1.3.5.8.9 1l10.1 6.3c.3.2.6.3.9.3h1c.3 0 .6-.2.9-.4s.5-.4.7-.7.3-.6.3-.9 0-.6 0-.9-.2-.6-.4-.9-.4-.5-.7-.6l-10.1-6.3c-.3-.2-.6-.3-1-.4-.4 0-.7 0-1.1.1zm35.8-9.6c-.6.2-1.1.6-1.4 1.2l-5.6 10.5c-.3.6-.4 1.2-.2 1.8s.6 1.1 1.2 1.4 1.2.4 1.9.2c.6-.2 1.1-.6 1.4-1.2l5.6-10.5c.2-.4.4-.9.3-1.4 0-.5-.2-1-.6-1.3-.3-.4-.8-.7-1.2-.8-.5-.1-1-.1-1.5 0zm-13.5 17.8c-4.6 1.2-7.5 5.8-6.3 10.2l8.8 32.6c-1.6-1-3.4-2.3-4.8-3-1.5-.8-3-1.4-4.6-1.6s-3.4.2-4.9 1.1c-1.8 1.1-2.6 3-2.7 5-.1 1.9.6 4.1 2.3 5.7 5.7 4.9 12.6 12.6 20.1 18.6 7.6 6 16.3 10.6 25.6 8.1l5.1-1.4c12.9-3.4 20.9-16.1 17.4-29l-6.7-24.8c-1.1-4.2-5.1-7.2-9.3-6.1-1.3.3-2.3 1.1-3.2 2-1.9-2.2-4.8-3.4-7.7-2.6-1.5.4-2.7 1.3-3.6 2.4-2.1-2.1-5.3-3.1-8.4-2.2-1.4.4-2.5 1.1-3.5 1.9l-3-11.3c-1.2-4.5-6-6.9-10.6-5.7zm1.2 4.7c2.2-.6 4.1.5 4.6 2.3l7.8 28.9c0 .3.2.6.4.9s.4.5.7.6.6.3.9.3h1c.3 0 .6-.2.9-.4s.5-.4.6-.7c.2-.3.3-.6.3-.9s0-.6 0-.9l-2.9-10.8s0-.1 0-.2c-.2-1.7.9-3.4 2.9-3.9 2.2-.6 4.1.5 4.6 2.3l3 11.2c0 .3.2.6.4.9s.4.5.7.6c.3.2.6.3.9.3h1c.3 0 .6-.2.9-.4s.5-.4.6-.7c.2-.3.3-.6.3-.9s0-.6 0-.9l-2.4-8.7s0 0 0 0c0-.1 0-.2 0-.4-.1-1.7.7-3 2-3.4 1.5-.4 3.2.6 3.7 2.6l2.3 8.4c0 .3.2.6.4.9s.4.5.7.6c.3.2.6.3.9.3h1c.3 0 .6-.2.9-.4s.5-.4.6-.7c.2-.3.3-.6.3-.9s0-.6 0-.9l-1.5-5.6c0-.1 0-.2 0-.3-.2-1.8.7-3 1.7-3.3 1.2-.3 2.8.6 3.4 2.7l6.7 24.8c2.8 10.4-3.4 20.3-14 23.1l-5.1 1.4c-7.1 1.9-14.2-1.6-21.3-7.2s-13.8-13.2-20-18.5c-.5-.5-.7-1.1-.7-1.7 0-.7.4-1.1.5-1.2.7-.4 1.1-.5 1.8-.4.7 0 1.6.4 2.8 1 2.4 1.3 5.6 3.6 9.8 6.1.4.2.9.4 1.4.3.5 0 .9-.2 1.3-.5s.7-.7.8-1.1c.2-.5.2-.9 0-1.4l-10.4-38.6c-.5-1.8.7-3.7 2.9-4.3z" fill="#191919"/></svg>